# Blender v2.80 (sub 75) OBJ File: ''
# www.blender.org
mtllib 6.mtl
o rb26_stock_reference.001_rb26_stock_reference.001_rb26_stoc.009
v -13.175753 18.950348 0.536591
v -6.360003 18.950348 0.536588
v -13.175753 18.971598 -0.303934
v 0.862287 18.971600 -0.303939
v -1.529198 18.971600 -0.303938
v 0.862287 18.950350 0.536586
v -1.529198 18.950350 0.536587
v -3.155408 18.971600 -0.303938
v -3.155408 18.950350 0.536587
v -4.925108 18.971600 -0.303938
v -4.925108 18.950350 0.536588
v -6.360003 18.971598 -0.303937
v -13.175753 18.950348 -1.119949
v -6.360003 18.950348 -1.119952
v -4.925108 18.950350 -1.119952
v -3.155408 18.950350 -1.119953
v -1.529198 18.950350 -1.119953
v 0.862287 18.950350 -1.119954
v 8.770697 18.950352 -1.119957
v 8.770697 18.971601 -0.303941
v 8.770697 18.950352 0.536583
vt 0.016098 0.739147
vt 0.260207 0.739147
vt 0.016098 0.709043
vt 0.518878 0.709043
vt 0.433226 0.709043
vt 0.518878 0.739147
vt 0.433226 0.739147
vt 0.374982 0.709043
vt 0.374982 0.739147
vt 0.311599 0.709043
vt 0.311599 0.739147
vt 0.260207 0.709043
vt 0.016098 0.679817
vt 0.260207 0.679817
vt 0.311599 0.679817
vt 0.374982 0.679817
vt 0.433226 0.679817
vt 0.518878 0.679817
vt 0.802123 0.679817
vt 0.802122 0.709043
vt 0.802122 0.739147
vn 0.0854 0.9960 0.0274
vn -0.0040 0.9997 0.0242
vn 0.0856 0.9963 -0.0003
vn -0.0000 1.0000 -0.0004
vn -0.0063 0.8923 -0.4513
vn -0.0167 0.9119 -0.4100
vn -0.0277 0.9385 -0.3441
vn -0.0478 0.9782 -0.2019
vn 0.0857 0.9960 -0.0264
vn -0.0035 0.9997 -0.0236
vn -0.0374 0.9698 0.2410
vn -0.0249 0.9330 0.3591
vn -0.0163 0.9068 0.4212
vn -0.0101 0.8862 0.4632
vn 0.0077 0.8077 0.5895
vn -0.0000 0.8175 -0.5760
usemtl valvecover_badge.000
s 1
f 1/1/1 2/2/2 3/3/3
f 4/4/4 5/5/4 6/6/5
f 7/7/6 6/6/5 5/5/4
f 5/5/4 8/8/4 7/7/6
f 9/9/7 7/7/6 8/8/4
f 8/8/4 10/10/4 9/9/7
f 11/11/8 9/9/7 10/10/4
f 11/11/8 10/10/4 2/2/2
f 12/12/4 2/2/2 10/10/4
f 12/12/4 3/3/3 2/2/2
f 3/3/3 12/12/4 13/13/9
f 14/14/10 13/13/9 12/12/4
f 12/12/4 10/10/4 14/14/10
f 15/15/11 14/14/10 10/10/4
f 10/10/4 8/8/4 15/15/11
f 16/16/12 15/15/11 8/8/4
f 8/8/4 5/5/4 16/16/12
f 17/17/13 16/16/12 5/5/4
f 5/5/4 4/4/4 17/17/13
f 18/18/14 17/17/13 4/4/4
f 18/18/14 4/4/4 19/19/15
f 20/20/4 19/19/15 4/4/4
f 4/4/4 6/6/5 20/20/4
f 21/21/16 20/20/4 6/6/5
